<svg id="visual" viewBox="0 0 900 600" width="900" height="600" xmlns="http://www.w3.org/2000/svg" xmlns:xlink="http://www.w3.org/1999/xlink" version="1.1"><rect x="0" y="0" width="900" height="600" fill="#358ed2"></rect><defs><linearGradient id="grad1_0" x1="33.3%" y1="100%" x2="100%" y2="0%"><stop offset="20%" stop-color="#358ed2" stop-opacity="1"></stop><stop offset="80%" stop-color="#358ed2" stop-opacity="1"></stop></linearGradient></defs><defs><linearGradient id="grad2_0" x1="0%" y1="100%" x2="66.7%" y2="0%"><stop offset="20%" stop-color="#358ed2" stop-opacity="1"></stop><stop offset="80%" stop-color="#358ed2" stop-opacity="1"></stop></linearGradient></defs><g transform="translate(900, 600)"><path d="M-486.7 0C-468.3 -64.2 -449.9 -128.4 -413 -171.1C-376.1 -213.7 -320.7 -234.9 -284.3 -284.3C-247.9 -333.6 -230.5 -411.2 -186.3 -449.7C-142.1 -488.2 -71 -487.5 0 -486.7L0 0Z" fill="#FBAE3C"></path></g><g transform="translate(0, 0)"><path d="M486.7 0C485.5 71.5 484.2 142.9 444.4 184.1C404.6 225.2 326.4 236 282.1 282.1C237.9 328.3 227.6 409.7 186.3 449.7C144.9 489.7 72.5 488.2 0 486.7L0 0Z" fill="#FBAE3C"></path></g></svg>